# xmcd CD database file
#
# Track frame offsets:
#	150
#	44310
#	89280
#	126177
#	165552
#	210757
#
# Disc length: 3368 seconds
#
# Revision: 0
# Processed by: cddbd v1.4PL0 Copyright (c) Steve Scherf et al.
# Submitted via: CDex 1.50beta9
#
DISCID=420d2606
DTITLE=Kang Qiao - Return To Your Heart
DYEAR=1999
DGENRE=New Age
TTITLE0=The Unspeakable
TTITLE1=Infantile Innocence
TTITLE2=Return To Your Heart
TTITLE3=Watery Tenderness
TTITLE4=Sky Fits Earth
TTITLE5=Circle Of Yin and Yang
EXTD=YEAR: 1999
EXTT0=
EXTT1=
EXTT2=
EXTT3=
EXTT4=
EXTT5=
PLAYORDER=
